<svg xmlns="http://www.w3.org/2000/svg" xmlns:xlink="http://www.w3.org/1999/xlink" version="1.1" x="0px" y="0px" viewBox="0 0 100 100" style="enable-background:new 0 0 100 100;" xml:space="preserve"><g><path d="M93.26,46.71l-4.21-2.92c-0.32-0.22-0.41-0.54-0.43-0.71c-0.02-0.18-0.02-0.51,0.24-0.81l3.31-3.83   c0.87-1.01,1.19-2.38,0.84-3.67c-0.34-1.29-1.3-2.33-2.57-2.78l-4.85-1.69c-0.37-0.12-0.54-0.4-0.6-0.55   c-0.12-0.27-0.12-0.56,0-0.83l1.91-4.47c0.58-1.35,0.39-2.86-0.49-4.02c-0.79-1.06-2.03-1.66-3.38-1.61   c-7.1,0.28-16.13,1.5-22.88,8.56c-3.14,3.28-5.58,7.44-7.06,12.03c-0.43,1.34-1.67,2.24-3.1,2.24c-1.41,0-2.65-0.9-3.08-2.24   c-1.48-4.59-3.92-8.75-7.06-12.03c-6.75-7.06-15.78-8.28-22.88-8.56c-1.34-0.05-2.59,0.55-3.36,1.59c-0.9,1.18-1.09,2.69-0.51,4.04   l1.92,4.48c0.11,0.26,0.11,0.55-0.01,0.82c-0.06,0.15-0.23,0.43-0.6,0.55L9.55,32c-1.26,0.44-2.22,1.48-2.56,2.77   c-0.35,1.29-0.03,2.66,0.84,3.67l3.31,3.82c0.26,0.31,0.26,0.64,0.24,0.82c-0.02,0.17-0.11,0.49-0.44,0.71l-4.2,2.92   C5.65,47.46,5,48.7,5,50.03c0,1.32,0.65,2.56,1.74,3.32l4.2,2.91c0.33,0.23,0.42,0.54,0.44,0.71c0.02,0.18,0.02,0.51-0.24,0.82   l-3.31,3.82c-0.87,1.01-1.19,2.38-0.84,3.67c0.34,1.3,1.3,2.33,2.57,2.78l4.85,1.69c0.37,0.13,0.54,0.4,0.6,0.55   c0.12,0.27,0.12,0.56,0,0.83L13.1,75.6c-0.58,1.34-0.38,2.88,0.49,4.02c0.83,1.11,2.83,2.23,11.12,1.06   c4.68-0.66,9.13-2.68,12.86-5.86c4.27-3.63,7.5-8.56,9.35-14.25c0.44-1.33,1.67-2.22,3.08-2.22s2.64,0.89,3.08,2.22   c1.85,5.69,5.08,10.62,9.35,14.25c3.73,3.18,8.18,5.2,12.86,5.86c2.49,0.35,4.42,0.5,5.91,0.5c3.47,0,4.63-0.78,5.19-1.54   c0.89-1.16,1.09-2.7,0.51-4.04l-1.92-4.48c-0.11-0.26-0.11-0.55,0.01-0.82c0.06-0.15,0.23-0.42,0.6-0.55l4.86-1.69   c1.26-0.45,2.22-1.48,2.56-2.78c0.35-1.29,0.03-2.66-0.84-3.67l-3.31-3.82c-0.26-0.31-0.26-0.64-0.24-0.82   c0.02-0.17,0.11-0.48,0.44-0.71l4.2-2.91c1.09-0.76,1.74-2,1.74-3.32C95,48.7,94.35,47.46,93.26,46.71z M91.55,50.88l-4.2,2.91   c-0.93,0.65-1.56,1.67-1.71,2.8c-0.14,1.14,0.2,2.29,0.95,3.16l3.31,3.82c0.32,0.37,0.26,0.78,0.21,0.94   c-0.04,0.16-0.19,0.55-0.65,0.72l-4.85,1.68c-1.05,0.37-1.92,1.16-2.37,2.18c-0.45,1.02-0.45,2.2-0.01,3.22l1.92,4.48   c0.21,0.49-0.03,0.88-0.11,0.99c-0.04,0.04-1.25,0.93-8.33-0.07c-4.12-0.58-8.04-2.37-11.33-5.17c-3.85-3.27-6.77-7.73-8.45-12.9   c-0.84-2.57-3.22-4.29-5.93-4.29s-5.09,1.72-5.93,4.29c-1.68,5.17-4.6,9.63-8.45,12.9c-3.29,2.8-7.21,4.59-11.33,5.17   c-7.08,1-8.29,0.11-8.3,0.1c-0.11-0.14-0.35-0.53-0.13-1.03l1.91-4.47c0.44-1.02,0.44-2.2-0.01-3.22   c-0.45-1.02-1.32-1.81-2.37-2.18l-4.84-1.68c-0.47-0.17-0.62-0.56-0.66-0.72c-0.05-0.16-0.11-0.57,0.21-0.94l3.31-3.82   c0.75-0.87,1.09-2.02,0.95-3.16c-0.15-1.13-0.78-2.15-1.71-2.8l-4.2-2.91C8.17,50.68,8,50.37,8,50.03c0-0.35,0.17-0.66,0.45-0.86   l4.19-2.91c0.94-0.64,1.57-1.66,1.72-2.8c0.14-1.13-0.2-2.28-0.95-3.16l-3.31-3.82c-0.32-0.37-0.26-0.78-0.21-0.94   c0.04-0.16,0.19-0.55,0.65-0.71l4.85-1.69c1.05-0.36,1.92-1.16,2.37-2.18c0.45-1.02,0.45-2.2,0.01-3.22l-1.92-4.47   c-0.21-0.5,0.03-0.89,0.15-1.05c0.09-0.12,0.35-0.4,0.8-0.4h0.05c6.95,0.27,14.86,1.39,20.83,7.63c2.83,2.96,5.03,6.72,6.37,10.88   c0.83,2.59,3.22,4.32,5.96,4.32c2.72,0,5.11-1.73,5.94-4.32c1.34-4.16,3.54-7.92,6.37-10.88c5.97-6.24,13.88-7.36,20.83-7.63   c0.47-0.04,0.76,0.27,0.86,0.42c0.11,0.14,0.35,0.53,0.13,1.03l-1.91,4.47c-0.44,1.02-0.44,2.2,0.01,3.22   c0.45,1.02,1.32,1.82,2.37,2.18l4.84,1.69c0.47,0.16,0.62,0.55,0.66,0.71c0.05,0.16,0.11,0.57-0.21,0.94l-3.31,3.83   c-0.75,0.87-1.09,2.02-0.95,3.15c0.15,1.14,0.78,2.16,1.71,2.8l4.2,2.91c0.28,0.2,0.45,0.51,0.45,0.86   C92,50.37,91.83,50.68,91.55,50.88z"/><path d="M76.986,41.874c0.554-0.616,0.504-1.564-0.112-2.118c-0.616-0.555-1.565-0.503-2.118,0.112   c-3.971,4.415-10.365,7.656-17.562,8.917c-4.786-0.765-9.592-0.766-14.387,0c-7.2-1.261-13.593-4.502-17.563-8.917   c-0.552-0.615-1.502-0.667-2.118-0.112c-0.616,0.554-0.666,1.502-0.112,2.118c3.355,3.73,8.041,6.625,13.53,8.431   c-5.488,1.806-10.174,4.701-13.53,8.431c-0.554,0.616-0.504,1.564,0.112,2.118c0.615,0.555,1.565,0.502,2.118-0.112   c3.971-4.415,10.367-7.657,17.564-8.917c2.395,0.383,4.813,0.582,7.192,0.582c2.379,0,4.796-0.199,7.193-0.582   c7.2,1.262,13.593,4.503,17.563,8.917c0.296,0.33,0.705,0.497,1.116,0.497c0.356,0,0.716-0.127,1.002-0.385   c0.616-0.554,0.666-1.502,0.112-2.118c-3.355-3.73-8.041-6.625-13.53-8.431C68.944,48.499,73.631,45.604,76.986,41.874z"/></g></svg>