<svg xmlns="http://www.w3.org/2000/svg" version="1.1" viewBox="0 0 100 100">
 <path d="m63.324 75.598c-2.4023-2.4023-5.3984-4.0273-8.6992-4.7578-0.54688-4.8789-3.832-9.0117-8.5039-10.656-1.2227-3.8047-4.2031-6.8711-7.9727-8.2031-1.2266-3.8008-4.2031-6.8633-7.9688-8.1953-1.2891-4.0039-4.5234-7.1914-8.5703-8.3984-0.58203-0.17578-1.2383 0.18359-1.3906 0.77734l-0.8125 3.0156c-1.0859 4.0352-4.7617 6.8984-8.9414 6.9688-0.44531 0.007812-0.84375 0.28125-1.0117 0.69531s-0.070313 0.88672 0.24609 1.2031l2.3203 2.3203c2.4023 2.4023 5.3984 4.0273 8.6992 4.7578 0.54688 4.875 3.832 9.0078 8.5 10.652 1.2031 3.7773 4.1094 6.8359 7.9688 8.1953 1.2031 3.7773 4.1094 6.8359 7.9688 8.1953 1.2617 3.9688 4.4023 7.1523 8.5508 8.3945 0.58984 0.20312 1.25-0.17188 1.4141-0.76562l0.8125-3.0156c1.0859-4.0352 4.7617-6.8984 8.9414-6.9688 0.44531-0.007812 0.84375-0.28125 1.0117-0.69531 0.16797-0.41406 0.070312-0.88672-0.24609-1.2031l-2.3203-2.3203zm-50.445-27.512c3.1289-0.71484 5.8398-2.707 7.4648-5.4531l0.26953 10.195c-2.6562-0.69531-5.0625-2.0703-7.0195-4.0273zm15.793 15.059c-3.4453-1.7383-5.6914-5.2461-5.8047-9.1719l-0.41797-15.887c2.7344 1.2891 4.8477 3.7188 5.707 6.6484l0.46094 17.492c0.007812 0.30469 0.027343 0.61328 0.058593 0.91797zm7.9688 8.1953c-3.457-1.7266-5.7109-5.332-5.8047-9.1719l-0.41797-15.887c2.7344 1.2891 4.8477 3.7188 5.707 6.6484l0.46094 17.492c0.007812 0.30469 0.027343 0.61328 0.058593 0.91797zm7.9688 8.1953c-3.457-1.7266-5.7148-5.332-5.8047-9.1719l-0.41797-15.891c2.7344 1.2891 4.8477 3.7188 5.707 6.6484l0.46094 17.492c0.007812 0.30469 0.027343 0.61328 0.058593 0.91797zm2.5195 1.4766c-0.21094-0.80078-0.33203-1.625-0.35938-2.4531l-0.41797-15.895c3.5547 1.6523 5.9297 5.1406 6.1133 9.1211v0.015625l0.011718 0.19141 0.41797 15.891c-2.8672-1.332-4.9648-3.8594-5.7695-6.8789zm7.8711 2.3242-0.26953-10.195c2.6562 0.69531 5.0625 2.0703 7.0195 4.0273l0.71484 0.71484c-3.1289 0.71484-5.8398 2.707-7.4648 5.4531zm35.297-24.844-2.6797-2.6797c-2.7812-2.7812-6.2539-4.6523-10.082-5.4727-0.58203-5.6445-4.3867-10.441-9.7969-12.309-1.3633-4.375-4.7305-7.918-9.2031-9.4648-1.3633-4.375-4.7305-7.918-9.2031-9.4648-1.4219-4.5664-5.0234-8.2383-9.793-9.668-0.58594-0.19922-1.2617 0.16797-1.4141 0.76562l-0.9375 3.4844c-1.2734 4.7344-5.5859 8.0938-10.488 8.1758-0.44531 0.007813-0.84375 0.28125-1.0117 0.69531-0.16797 0.41406-0.070312 0.88672 0.24609 1.2031l2.6797 2.6797c2.7812 2.7812 6.2539 4.6523 10.082 5.4727 0.58203 5.6484 4.3867 10.445 9.8008 12.312 1.3906 4.4062 4.8398 7.957 9.2031 9.4688 1.3906 4.4062 4.8398 7.9531 9.2031 9.4648 1.4531 4.6094 5.1602 8.2852 9.8086 9.668 0.58984 0.17969 1.2266-0.1875 1.3906-0.77734l0.9375-3.4844c1.2734-4.7344 5.5859-8.0938 10.488-8.1758 0.44531-0.007813 0.84375-0.28125 1.0117-0.69531 0.16797-0.41406 0.070313-0.88672-0.24609-1.2031zm-61.156-34.676c3.8984-0.79297 7.2656-3.3203 9.1211-6.8242l0.33203 12.625c-3.1836-0.78906-6.0664-2.418-8.4062-4.7539zm11.719 7.1445v-0.015626l-0.50391-18.852c4.3984 1.9023 7.3086 6.3008 7.4258 11.039l0.49219 18.629c-4.3047-1.8867-7.1953-6.043-7.4102-10.801zm9.6758 12.336-0.53125-20.223c-0.011718-0.4375-0.046875-0.87109-0.097656-1.3008-0.003906-0.019532 0-0.039063-0.003906-0.054688 4.207 1.9727 6.9688 6.2734 7.082 10.883l0.49219 18.625c-3.332-1.4766-5.9141-4.3945-6.9414-7.9219zm9.2031 9.4648-0.53125-20.223c-0.011719-0.4375-0.046875-0.87109-0.097656-1.3008-0.003906-0.019531-0.003906-0.039062-0.003906-0.058593 4.207 1.9727 6.9688 6.2734 7.082 10.883l0.49219 18.625c-3.332-1.4766-5.9141-4.3945-6.9414-7.9219zm9.2031 9.4648-0.53125-20.223c-0.011718-0.4375-0.046875-0.86719-0.09375-1.2969-0.003906-0.019531-0.003906-0.042969-0.003906-0.0625 4.1914 1.9844 6.9453 6.1758 7.082 10.883l0.49219 18.625c-3.332-1.4766-5.9141-4.3945-6.9414-7.9219zm9.0352 3.0273-0.33203-12.625c3.1836 0.78906 6.0703 2.418 8.4062 4.7539l1.0469 1.0469c-3.8984 0.79297-7.2656 3.3242-9.1211 6.8242z"/>
</svg>