<svg xmlns="http://www.w3.org/2000/svg" xmlns:xlink="http://www.w3.org/1999/xlink" version="1.1" x="0px" y="0px" viewBox="0 0 100 100" enable-background="new 0 0 100 100" xml:space="preserve"><path d="M41.264,23.441c0-0.082-0.028-0.154-0.046-0.229c-0.072-4.966-2.459-9.928-7.185-14.653c-0.391-0.391-1.023-0.391-1.414,0  c-4.727,4.728-7.114,9.691-7.184,14.658c-0.018,0.074-0.045,0.145-0.045,0.225v53.112c0,0.002-0.001,0.003-0.001,0.005  c0,5.076,2.432,10.084,7.23,14.883c0.195,0.195,0.451,0.293,0.707,0.293s0.512-0.098,0.707-0.293  c4.799-4.799,7.232-9.807,7.231-14.883c0-0.001,0-0.002,0-0.002V23.441z M33.326,89.271c-3.923-4.171-5.937-8.441-5.938-12.709  c0-0.002,0.001-0.003,0.001-0.004V31.285c1.197,2.384,2.93,4.741,5.229,7.04c0.195,0.195,0.451,0.293,0.707,0.293  s0.512-0.098,0.707-0.293c2.3-2.3,4.033-4.657,5.231-7.042v45.275c0,0.001,0,0.001,0,0.002  C39.265,80.829,37.251,85.101,33.326,89.271z M33.326,10.729c7.834,8.335,7.834,17.089,0,25.425  C25.493,27.819,25.493,19.064,33.326,10.729z"/><path d="M30.559,41.63c-0.552,0-1,0.448-1,1v33.928c0,0.553,0.448,1,1,1s1-0.447,1-1V42.63C31.559,42.078,31.111,41.63,30.559,41.63  z"/><path d="M36.094,41.63c-0.552,0-1,0.448-1,1v33.928c0,0.553,0.448,1,1,1s1-0.447,1-1V42.63C37.094,42.078,36.646,41.63,36.094,41.63  z"/><path d="M98.482,81.465c0.001-0.046,0.015-0.091,0.01-0.136c-0.006-0.056-0.033-0.107-0.049-0.162  c-0.021-0.071-0.034-0.145-0.069-0.209c-0.004-0.006-0.003-0.014-0.007-0.02L65.976,24.602c-0.841-2.583-8.034-4.965-9.62-5.461  c-3.072-0.958-6.56-1.578-8.886-1.578c-1.463,0-2.24,0.255-2.595,0.852c-0.154,0.258-0.196,0.559-0.142,0.852  c0.008,0.151,0.041,0.301,0.121,0.441l32.348,56.264c0.002,0.003,0.004,0.005,0.006,0.008c0.846,1.511,4.182,3.887,9.56,5.567  c0.725,0.226,5.189,1.575,8.404,1.575c1.643,0,2.96-0.353,3.283-1.388c0.002-0.006,0-0.013,0.002-0.019  C98.48,81.635,98.479,81.551,98.482,81.465z M55.76,21.05c4.514,1.41,7.194,2.97,8.051,3.77c-0.197,0.03-0.476,0.055-0.861,0.055  c-1.888,0-4.846-0.571-7.911-1.528c-3.983-1.244-6.453-2.761-7.637-3.784C49.111,19.563,52.423,20.01,55.76,21.05z M87.362,79.639  c-5.364-1.676-7.986-3.851-8.415-4.642c-0.002-0.004-0.006-0.006-0.008-0.01c-0.002-0.003-0.002-0.007-0.004-0.011L49.081,23.05  c1.456,0.78,3.248,1.547,5.361,2.207c3.297,1.029,6.397,1.619,8.507,1.619c0.372,0,1.173-0.009,1.875-0.262L96.14,81.077  C94.844,81.249,91.624,80.967,87.362,79.639z"/><path d="M59.422,32.137c-0.276-0.479-0.889-0.644-1.365-0.368c-0.479,0.275-0.645,0.886-0.369,1.365l19.027,33.093  c0.186,0.322,0.521,0.502,0.868,0.502c0.169,0,0.341-0.043,0.497-0.133c0.479-0.275,0.645-0.887,0.369-1.365L59.422,32.137z"/><path d="M68.33,36.475c-0.276-0.479-0.889-0.644-1.365-0.368c-0.479,0.275-0.645,0.886-0.369,1.365l19.029,33.096  c0.186,0.322,0.521,0.502,0.868,0.502c0.169,0,0.341-0.043,0.497-0.133c0.479-0.275,0.645-0.887,0.369-1.365L68.33,36.475z"/><path d="M17.375,23.441c0-0.082-0.028-0.154-0.046-0.229c-0.072-4.966-2.458-9.928-7.185-14.653c-0.391-0.391-1.023-0.391-1.414,0  c-4.727,4.728-7.114,9.691-7.184,14.658C1.528,23.291,1.5,23.362,1.5,23.441v53.112c0,0.002-0.001,0.003-0.001,0.005  c-0.001,5.076,2.432,10.083,7.23,14.883c0.195,0.195,0.451,0.293,0.707,0.293s0.512-0.098,0.707-0.293  c4.799-4.799,7.232-9.807,7.231-14.883c0-0.001,0-0.002,0-0.002V23.441z M9.437,89.271C5.514,85.1,3.5,80.83,3.5,76.563  c0-0.002,0-0.003,0-0.004V31.285c1.198,2.384,2.93,4.741,5.229,7.04c0.195,0.195,0.451,0.293,0.707,0.293s0.512-0.098,0.707-0.293  c2.3-2.3,4.033-4.657,5.231-7.042v45.275c0,0.001,0,0.001,0,0.002C15.376,80.829,13.362,85.101,9.437,89.271z M9.437,10.729  c7.834,8.335,7.834,17.089,0,25.425C1.604,27.819,1.604,19.064,9.437,10.729z"/><path d="M6.669,41.63c-0.552,0-1,0.448-1,1v33.928c0,0.553,0.448,1,1,1s1-0.447,1-1V42.63C7.669,42.078,7.222,41.63,6.669,41.63z"/><path d="M12.205,41.63c-0.552,0-1,0.448-1,1v33.928c0,0.553,0.448,1,1,1s1-0.447,1-1V42.63C13.205,42.078,12.757,41.63,12.205,41.63  z"/><text x="0" y="115" fill="#000000" font-size="5px" font-weight="bold" font-family="'Helvetica Neue', Helvetica, Arial-Unicode, Arial, Sans-serif">Created by Noura Mbarki</text><text x="0" y="120" fill="#000000" font-size="5px" font-weight="bold" font-family="'Helvetica Neue', Helvetica, Arial-Unicode, Arial, Sans-serif">from the Noun Project</text></svg>