<svg xmlns="http://www.w3.org/2000/svg" version="1.1" viewBox="0 0 100 100">
 <g>
  <path d="m33.375 85.965c-0.10156 0-0.20703-0.027344-0.29688-0.078125-0.23828-0.12891-0.36328-0.39453-0.3125-0.66016l1.0078-5.3438c0.027343-0.12891 0.089843-0.24609 0.1875-0.33984l50.957-47.785c0.19531-0.18359 0.48828-0.22266 0.72656-0.09375 0.23828 0.12891 0.36328 0.39453 0.3125 0.66016l-1.0078 5.3438c-0.027344 0.12891-0.089844 0.24609-0.1875 0.33984l-50.957 47.785c-0.11719 0.11328-0.27344 0.17188-0.42969 0.17188zm1.582-5.6523-0.61719 3.2695 49.418-46.344 0.61719-3.2695zm49.379-42.758z"/>
  <path d="m32.137 78.352c-0.10156 0-0.20703-0.027343-0.29688-0.078124-0.23828-0.12891-0.36328-0.39453-0.3125-0.66016l1.0078-5.3438c0.027344-0.12891 0.089844-0.24609 0.1875-0.33984l50.957-47.785c0.19531-0.18359 0.48828-0.22266 0.72656-0.09375 0.23828 0.12891 0.36328 0.39453 0.3125 0.66016l-1.0078 5.3438c-0.027344 0.12891-0.089844 0.24609-0.1875 0.33984l-50.961 47.789c-0.11719 0.10938-0.26953 0.16797-0.42578 0.16797zm1.5781-5.6523-0.61719 3.2695 49.414-46.34 0.61719-3.2695zm49.379-42.754z"/>
  <path d="m30.895 70.738c-0.10156 0-0.20703-0.027343-0.29688-0.078125-0.23828-0.12891-0.36328-0.39453-0.3125-0.66016l1.0078-5.3438c0.027343-0.12891 0.089843-0.24609 0.1875-0.33984l50.949-47.785c0.19531-0.18359 0.48828-0.22266 0.72656-0.09375s0.36328 0.39453 0.3125 0.66016l-1.0078 5.3438c-0.027344 0.12891-0.089844 0.24609-0.1875 0.33984l-50.953 47.789c-0.11719 0.11328-0.27344 0.16797-0.42578 0.16797zm1.582-5.6484-0.61719 3.2695 49.414-46.336 0.61719-3.2695zm49.375-42.754z"/>
  <path d="m22.777 69.574c-0.10156 0-0.20703-0.027344-0.29688-0.078125-0.23828-0.12891-0.36328-0.39453-0.3125-0.66016l1.0078-5.3438c0.027344-0.12891 0.089844-0.24609 0.1875-0.33984l50.949-47.781c0.19531-0.18359 0.48828-0.22266 0.72656-0.09375 0.23828 0.12891 0.36328 0.39453 0.3125 0.66016l-1.0078 5.3438c-0.027344 0.12891-0.089844 0.24609-0.1875 0.33984l-50.953 47.785c-0.11719 0.11328-0.26953 0.16797-0.42578 0.16797zm1.582-5.6523-0.61719 3.2695 49.414-46.336 0.61719-3.2695zm49.371-42.754z"/>
  <path d="m14.66 68.41c-0.10156 0-0.20703-0.027344-0.29688-0.078125-0.23828-0.12891-0.36328-0.39453-0.3125-0.66016l1.0078-5.3438c0.027344-0.12891 0.089844-0.24609 0.1875-0.33984l50.949-47.785c0.19531-0.18359 0.48828-0.22266 0.72656-0.09375s0.36328 0.39453 0.3125 0.66016l-1.0078 5.3438c-0.027343 0.12891-0.089843 0.24609-0.1875 0.33984l-50.953 47.789c-0.11719 0.10937-0.27344 0.16797-0.42578 0.16797zm1.582-5.6523-0.61719 3.2695 49.418-46.34 0.61719-3.2695zm49.375-42.75z"/>
 </g>
</svg>